HIERARCHY
ROOT Hips
{
 OFFSET 0.000000 0.000000 0.000000
 CHANNELS 6 Xposition Yposition Zposition Yrotation Xrotation Zrotation
 JOINT Chest
 {
  OFFSET 0.000000 9.585900 0.002600
  CHANNELS 3 Yrotation Xrotation Zrotation
  JOINT Chest2
  {
   OFFSET 0.000000 9.601200 -0.005300
   CHANNELS 3 Yrotation Xrotation Zrotation
   JOINT Chest3
   {
    OFFSET 0.000000 9.561800 0.000000
    CHANNELS 3 Yrotation Xrotation Zrotation
    JOINT Chest4
    {
     OFFSET 0.000000 9.552100 0.000000
     CHANNELS 3 Yrotation Xrotation Zrotation
     JOINT Neck
     {
      OFFSET 0.000000 14.453000 0.000000
      CHANNELS 3 Yrotation Xrotation Zrotation
      JOINT Head
      {
       OFFSET 0.000000 8.936500 -0.011300
       CHANNELS 3 Yrotation Xrotation Zrotation
       End Site
       {
        OFFSET 0.000000 17.073600 -0.006000
       }
      }
     }
     JOINT RightCollar
     {
      OFFSET -2.921100 9.558500 0.000000
      CHANNELS 3 Yrotation Xrotation Zrotation
      JOINT RightShoulder
      {
       OFFSET -13.519700 0.000000 0.000000
       CHANNELS 3 Yrotation Xrotation Zrotation
       JOINT RightElbow
       {
        OFFSET 0.000000 -29.696600 0.000000
        CHANNELS 3 Yrotation Xrotation Zrotation
        JOINT RightWrist
        {
         OFFSET 0.000000 -24.004700 0.000000
         CHANNELS 3 Yrotation Xrotation Zrotation
         End Site
         {
          OFFSET 0.000000 -17.728500 0.000000
         }
        }
       }
      }
     }
     JOINT LeftCollar
     {
      OFFSET 2.921100 9.558500 0.000000
      CHANNELS 3 Yrotation Xrotation Zrotation
      JOINT LeftShoulder
      {
       OFFSET 13.519700 0.000000 0.000000
       CHANNELS 3 Yrotation Xrotation Zrotation
       JOINT LeftElbow
       {
        OFFSET 0.000000 -29.696600 0.000000
        CHANNELS 3 Yrotation Xrotation Zrotation
        JOINT LeftWrist
        {
         OFFSET 0.000000 -24.004700 0.000000
         CHANNELS 3 Yrotation Xrotation Zrotation
         End Site
         {
          OFFSET 0.000000 -17.728500 0.000000
         }
        }
       }
      }
     }
    }
   }
  }
 }
 JOINT RightHip
 {
  OFFSET -7.771700 -0.012900 -0.001300
  CHANNELS 3 Yrotation Xrotation Zrotation
  JOINT RightKnee
  {
   OFFSET 0.000000 -40.869800 0.001200
   CHANNELS 3 Yrotation Xrotation Zrotation
   JOINT RightAnkle
   {
    OFFSET 0.000000 -39.717900 0.002100
    CHANNELS 3 Yrotation Xrotation Zrotation
    JOINT RightToe
    {
     OFFSET 0.000000 -4.965400 11.033500
     CHANNELS 3 Yrotation Xrotation Zrotation
     End Site
     {
      OFFSET 0.000000 -1.423100 5.872300
     }
    }
   }
  }
 }
 JOINT LeftHip
 {
  OFFSET 7.771700 -0.012900 -0.001300
  CHANNELS 3 Yrotation Xrotation Zrotation
  JOINT LeftKnee
  {
   OFFSET 0.000000 -40.869800 0.001200
   CHANNELS 3 Yrotation Xrotation Zrotation
   JOINT LeftAnkle
   {
    OFFSET 0.000000 -39.717900 0.002100
    CHANNELS 3 Yrotation Xrotation Zrotation
    JOINT LeftToe
    {
     OFFSET 0.000000 -4.965400 11.033500
     CHANNELS 3 Yrotation Xrotation Zrotation
     End Site
     {
      OFFSET 0.000000 -1.423100 5.872300
     }
    }
   }
  }
 }
}
MOTION
Frames: 16
Frame Time: 0.008333
0.000000 85.388000 0.000000 0.000000 -5.767877 0.000000 0.000000 11.653817 0.000000 0.000000 -5.885947 0.000000 0.000000 -0.000000 0.000000 0.000000 -0.000000 0.000000 0.000000 12.528835 0.000000 0.000000 0.711642 0.000000 0.000000 -0.000000 0.000000 0.000000 0.000000 -90.000000 0.000000 -2.309062 0.000000 0.000000 2.309062 0.000000 0.000000 -0.000000 0.000000 0.000000 -0.000000 90.000000 0.000000 -2.309062 0.000000 0.000000 2.309062 0.000000 0.000000 8.520406 0.000000 0.000000 1.905762 0.000000 -0.000000 -4.658285 0.000000 0.000000 -0.000000 0.000000 0.000000 8.520406 0.000000 0.000000 1.905762 0.000000 -0.000000 -4.658285 0.000000 0.000000 -0.000000 0.000000
3.473585 49.940567 42.681751 173.573451 -31.496655 -6.840080 5.632911 18.283590 6.241389 0.587699 2.321007 0.557834 0.940479 3.673351 0.921766 4.641183 15.916845 4.524984 -1.105159 19.011365 4.554571 -3.409916 -0.281974 8.679790 -1.763058 -2.897127 -5.698651 16.593000 -6.696465 -4.329443 -125.732540 -44.713173 141.861320 -10.797916 -3.661977 53.592316 -9.578224 -4.807187 -1.487226 -2.752025 -8.403216 1.711573 121.022515 -45.628494 -145.923877 39.078116 15.845409 -59.709922 -3.161575 -49.516228 10.684559 -80.361837 85.419110 -68.654614 -1.039588 -8.552136 -6.237754 -0.212979 0.711673 -0.088384 -9.563447 -53.327199 17.368607 -147.633257 83.666185 -155.445068 -1.419362 -11.459048 7.929287 -0.215416 -0.485808 -0.117891
3.466586 49.945892 42.688387 173.562328 -31.485094 -6.836451 5.624190 18.231268 6.235506 0.585815 2.309448 0.557300 0.915486 3.583572 0.914816 4.624840 15.843266 4.529097 -1.126051 19.084498 4.542412 -3.398193 -0.136837 8.661135 -1.768550 -2.866727 -5.690776 16.603829 -6.697070 -4.263619 -125.787046 -44.764684 141.901542 -10.804186 -3.664702 53.617957 -9.527026 -4.779345 -1.485760 -2.697695 -8.280911 1.701485 120.950104 -45.647756 -145.876825 39.053753 15.819315 -59.716625 -3.148951 -49.525609 10.689728 -80.152096 85.406686 -68.458179 -1.030281 -8.538850 -6.224044 -0.233540 0.714868 -0.087895 -9.528944 -53.333410 17.326658 -147.716574 83.691570 -155.500670 -1.414288 -11.476640 7.926279 -0.220577 -0.466091 -0.122361
3.458771 49.952245 42.695533 173.560119 -31.474654 -6.838567 5.579215 18.126528 6.220053 0.563491 2.226447 0.551145 0.929349 3.627254 0.917097 4.607223 15.770577 4.532536 -1.147581 19.154211 4.527120 -3.425647 -0.000104 8.642659 -1.777556 -2.844420 -5.682501 16.621016 -6.695505 -4.198326 -125.863338 -44.814311 141.965062 -10.813370 -3.672469 53.641022 -9.472575 -4.752361 -1.478386 -2.641339 -8.157508 1.679943 120.878879 -45.663802 -145.837254 39.006438 15.816811 -59.791799 -3.147334 -49.531419 10.698634 -79.937186 85.391451 -68.258614 -1.024303 -8.523025 -6.208812 -0.190373 0.713572 -0.088805 -9.511759 -53.339523 17.300563 -147.689435 83.710292 -155.457417 -1.404446 -11.475775 7.922237 -0.225490 -0.466616 -0.115839
3.451080 49.957967 42.705095 173.549427 -31.452424 -6.842071 5.539856 18.015226 6.209830 0.556475 2.197616 0.548380 0.928271 3.616305 0.915105 4.588013 15.699020 4.535407 -1.168049 19.221612 4.509262 -3.510793 0.109612 8.609100 -1.791372 -2.825829 -5.672120 16.638457 -6.696121 -4.138633 -125.949756 -44.859827 142.047897 -10.827862 -3.687713 53.664128 -9.411438 -4.727226 -1.469398 -2.585720 -8.034635 1.653469 120.889696 -45.698023 -145.932552 39.013211 15.800958 -59.862844 -3.150524 -49.550612 10.713395 -79.694195 85.380427 -68.035210 -0.978258 -8.500247 -6.201969 -0.276931 0.711465 -0.084146 -9.492019 -53.358183 17.280871 -147.748587 83.735562 -155.493788 -1.404539 -11.479080 7.915128 -0.225919 -0.457305 -0.112962
3.440824 49.962137 42.716484 173.539423 -31.415265 -6.833000 5.502665 17.911765 6.186393 0.559701 2.197845 0.548433 0.910369 3.557613 0.909648 4.568285 15.627995 4.538774 -1.187182 19.288669 4.490010 -3.554017 0.229582 8.573496 -1.814778 -2.800899 -5.660332 16.652800 -6.707460 -4.087637 -126.037326 -44.899509 142.138797 -10.849000 -3.708917 53.692687 -9.346399 -4.700755 -1.459547 -2.529620 -7.913809 1.626601 120.861497 -45.709262 -145.990628 39.006839 15.798058 -59.945841 -3.142516 -49.586730 10.722686 -79.464426 85.359330 -67.811118 -1.057262 -8.496976 -6.173094 -0.223491 0.717030 -0.097539 -9.466435 -53.394914 17.251826 -147.821998 83.762784 -155.549475 -1.421761 -11.472819 7.908154 -0.215961 -0.451938 -0.106098
3.433253 49.968703 42.723612 173.541111 -31.407813 -6.842152 5.465792 17.838642 6.177463 0.579130 2.243461 0.552998 0.876683 3.454515 0.900022 4.548740 15.557580 4.543078 -1.205529 19.355635 4.469868 -3.576461 0.353861 8.538736 -1.851806 -2.766640 -5.648310 16.661815 -6.734345 -4.043247 -126.115790 -44.934522 142.230977 -10.875529 -3.731626 53.728915 -9.281096 -4.674011 -1.449468 -2.472748 -7.796981 1.602972 120.820213 -45.713393 -146.027811 38.983099 15.798449 -60.051293 -3.150246 -49.585754 10.739101 -79.205754 85.347728 -67.566180 -1.060205 -8.489044 -6.158831 -0.203638 0.721315 -0.098569 -9.467115 -53.396231 17.248981 -147.890145 83.784073 -155.611088 -1.439105 -11.467050 7.908763 -0.210882 -0.452216 -0.102920
3.425980 49.973518 42.731674 173.547157 -31.388825 -6.852986 5.442622 17.787325 6.175188 0.557052 2.185690 0.547818 0.873229 3.424727 0.897889 4.529177 15.489781 4.548165 -1.224100 19.421602 4.449639 -3.599456 0.476255 8.503936 -1.898681 -2.731110 -5.638248 16.661608 -6.770527 -4.000135 -126.177941 -44.964365 142.321542 -10.904264 -3.756477 53.777850 -9.220237 -4.656074 -1.443788 -2.413183 -7.683731 1.589789 120.793206 -45.719019 -146.074025 38.965444 15.787052 -60.152115 -3.167064 -49.599602 10.754525 -79.021925 85.341157 -67.391580 -1.064084 -8.478847 -6.155955 -0.155938 0.720932 -0.094423 -9.476944 -53.411786 17.251838 -147.937566 83.803006 -155.652866 -1.454853 -11.459600 7.909132 -0.204072 -0.452558 -0.099324
3.421498 49.977757 42.738838 173.556325 -31.371664 -6.876841 5.422205 17.737253 6.185313 0.539860 2.131157 0.542657 0.866621 3.394630 0.897489 4.508276 15.424945 4.552486 -1.242514 19.487769 4.430875 -3.622637 0.599054 8.471723 -1.947769 -2.697554 -5.630438 16.650401 -6.806535 -3.954872 -126.221812 -44.985725 142.407618 -10.933318 -3.785095 53.844828 -9.161685 -4.647450 -1.444952 -2.351074 -7.572749 1.591702 120.790799 -45.723608 -146.137479 38.964082 15.759411 -60.235176 -3.198032 -49.610529 10.780929 -78.843479 85.339721 -67.228684 -1.002108 -8.459403 -6.169775 -0.184108 0.717942 -0.075588 -9.498630 -53.425549 17.272778 -147.907439 83.813925 -155.615970 -1.456264 -11.455037 7.912434 -0.203750 -0.452473 -0.097704
3.416435 49.980623 42.744790 173.559853 -31.353138 -6.887386 5.368494 17.609104 6.171100 0.530115 2.096045 0.539444 0.877532 3.426851 0.898744 4.486678 15.361841 4.554973 -1.259869 19.555007 4.415641 -3.644933 0.724022 8.445621 -1.994579 -2.662105 -5.621972 16.631725 -6.841565 -3.907556 -126.252238 -44.997759 142.487123 -10.959176 -3.809681 53.928784 -9.101140 -4.639283 -1.448584 -2.288737 -7.467132 1.602987 120.811554 -45.724297 -146.219308 38.979624 15.719181 -60.294334 -3.211895 -49.625345 10.800257 -78.733909 85.320564 -67.128119 -1.011658 -8.452608 -6.155954 -0.192283 0.718453 -0.079520 -9.514052 -53.440746 17.282755 -147.764235 83.816322 -155.471370 -1.440662 -11.454719 7.912995 -0.202432 -0.448683 -0.096882
3.413046 49.983104 42.748469 173.560378 -31.341585 -6.897775 5.334313 17.519283 6.163808 0.523401 2.071439 0.536760 0.875210 3.417913 0.896990 4.465910 15.298962 4.555617 -1.275875 19.621656 4.405181 -3.666341 0.848157 8.427917 -2.040066 -2.624072 -5.611087 16.612081 -6.877544 -3.858611 -126.280324 -45.004292 142.560767 -10.976694 -3.824044 54.024259 -9.039906 -4.628924 -1.449849 -2.227928 -7.370228 1.613365 120.845566 -45.725801 -146.310397 39.003502 15.672171 -60.337517 -3.224920 -49.634452 10.820054 -78.655125 85.307447 -67.057044 -1.023983 -8.444925 -6.140922 -0.221252 0.714426 -0.086817 -9.542750 -53.447769 17.311670 -147.681557 83.815478 -155.398566 -1.437707 -11.451554 7.917403 -0.198428 -0.451423 -0.097000
3.410250 49.984502 42.750735 173.560195 -31.328637 -6.902767 5.308745 17.448159 6.155036 0.518033 2.051555 0.534139 0.866575 3.386620 0.892787 4.444559 15.235562 4.553189 -1.290558 19.686272 4.398881 -3.686626 0.968669 8.417457 -2.083964 -2.583899 -5.598585 16.594100 -6.913637 -3.808631 -126.313553 -45.012020 142.629116 -10.989807 -3.830857 54.128451 -8.981793 -4.617568 -1.449085 -2.167584 -7.284388 1.621278 120.885789 -45.734161 -146.404038 39.032044 15.623390 -60.380759 -3.232599 -49.646129 10.836540 -78.595769 85.298280 -67.009604 -1.049640 -8.446533 -6.115751 -0.209426 0.718236 -0.097656 -9.561685 -53.458291 17.331134 -147.602428 83.812435 -155.328962 -1.427332 -11.448446 7.919146 -0.196233 -0.461456 -0.093234
3.410098 49.984969 42.752438 173.569334 -31.309861 -6.920459 5.279660 17.374232 6.156419 0.522841 2.069353 0.534385 0.847915 3.317506 0.884272 4.422862 15.172205 4.547423 -1.304864 19.748331 4.395629 -3.707230 1.084666 8.412442 -2.125285 -2.543829 -5.585824 16.573049 -6.946508 -3.758746 -126.354203 -45.022994 142.694582 -11.002760 -3.833582 54.239384 -8.928432 -4.605673 -1.450473 -2.101280 -7.213402 1.632512 120.919937 -45.749274 -146.495226 39.063398 15.577471 -60.433237 -3.255657 -49.662775 10.855023 -78.578021 85.297239 -67.002405 -1.017009 -8.441646 -6.112528 -0.219837 0.718146 -0.093587 -9.619138 -53.470283 17.385495 -147.490517 83.805635 -155.238087 -1.423517 -11.449149 7.921898 -0.195601 -0.462991 -0.090490
3.408138 49.984156 42.753097 173.576718 -31.284993 -6.918602 5.246641 17.299423 6.138683 0.512639 2.030271 0.529624 0.844832 3.305494 0.880400 4.403097 15.108472 4.540056 -1.318960 19.808730 4.394916 -3.713838 1.197175 8.407761 -2.166345 -2.507742 -5.573601 16.544150 -6.970961 -3.706821 -126.404106 -45.032395 142.765522 -11.008966 -3.835970 54.351192 -8.875754 -4.594013 -1.455605 -2.072373 -7.103043 1.633702 121.042753 -45.759660 -146.660715 39.094679 15.536347 -60.495152 -3.243887 -49.692121 10.850361 -78.653874 85.282095 -67.071072 -1.089413 -8.451116 -6.091170 -0.231544 0.716651 -0.102565 -9.653173 -53.491151 17.409822 -147.419235 83.801731 -155.187791 -1.428679 -11.445460 7.922562 -0.187836 -0.466968 -0.085172
3.406167 49.980784 42.756257 173.580403 -31.233153 -6.910224 5.222276 17.224872 6.118283 0.497776 1.967443 0.521666 0.842529 3.293002 0.877167 4.386772 15.044412 4.532974 -1.332530 19.869545 4.397705 -3.693402 1.305784 8.398244 -2.211899 -2.476852 -5.562729 16.507641 -6.985933 -3.650495 -126.464810 -45.039178 142.845486 -11.008988 -3.844546 54.462536 -8.823910 -4.583411 -1.462375 -1.972829 -7.086222 1.651307 121.003740 -45.795621 -146.706554 39.123217 15.497645 -60.560036 -3.239973 -49.748692 10.844170 -78.713396 85.273327 -67.125719 -1.156268 -8.467391 -6.073787 -0.250875 0.724150 -0.112347 -9.673614 -53.545332 17.419420 -147.344763 83.798501 -155.123930 -1.421532 -11.442681 7.925391 -0.187326 -0.466923 -0.084962
3.404373 49.979228 42.755120 173.602244 -31.201206 -6.904159 5.175717 17.136652 6.085611 0.498651 1.977468 0.521850 0.835263 3.246054 0.869243 4.375489 14.981466 4.526413 -1.346942 19.933344 4.406103 -3.722749 1.409475 8.404812 -2.270882 -2.449665 -5.551305 16.468227 -6.996868 -3.592212 -126.532254 -45.048213 142.925344 -11.011527 -3.861705 54.576761 -8.778076 -4.572710 -1.469166 -1.874950 -7.083853 1.665674 120.965494 -45.844209 -146.750230 39.149230 15.455741 -60.624146 -3.240764 -49.782902 10.816470 -78.772594 85.275502 -67.188761 -1.156671 -8.444192 -6.084565 -0.241510 0.698790 -0.095055 -9.691695 -53.577738 17.414104 -147.263102 83.791297 -155.052842 -1.437294 -11.447764 7.923885 -0.168283 -0.459642 -0.075696
